<svg width="520" height="790" viewBox="0 0 520 790" fill="none" xmlns="http://www.w3.org/2000/svg">
<path opacity="0.67" fill-rule="evenodd" clip-rule="evenodd" d="M320.624 144.951C379.379 134.711 433.647 -29.1903 484.597 5.91031C528.236 35.975 474.992 173.126 480.959 255.411C486.395 330.393 518.384 385.732 517.738 462.964C516.87 566.615 532.306 710.368 476.644 770.611C416.885 835.29 359.583 711.528 295.192 703.83C253.86 698.889 206.857 760.046 170.307 733.989C133.758 707.932 121.136 634.164 107.815 570.247C95.973 513.428 109.299 444.834 98.0925 387.495C75.7294 273.073 -32.4626 187.345 10.2648 71.1274C51.2611 -40.3814 152.434 35.3233 221.526 51.7579C261.379 61.2375 278.984 152.208 320.624 144.951Z" fill="url(#paint0_linear_123_221)"/>
<defs>
<linearGradient id="paint0_linear_123_221" x1="317.835" y1="-21.4472" x2="204.41" y2="755.315" gradientUnits="userSpaceOnUse">
<stop stop-color="white"/>
<stop offset="0.0572917" stop-color="#C2EEED"/>
<stop offset="0.333333" stop-color="#C2EEEA" stop-opacity="0.96"/>
<stop offset="1" stop-color="white"/>
</linearGradient>
</defs>
</svg>
