<svg width="165" height="789" viewBox="0 0 165 789" fill="none" xmlns="http://www.w3.org/2000/svg">
<path opacity="0.67" fill-rule="evenodd" clip-rule="evenodd" d="M320.456 144.476C379.212 134.236 433.48 -29.6652 484.429 5.43536C528.068 35.5 474.824 172.651 480.791 254.936C486.228 329.918 518.217 385.257 517.57 462.489C516.702 566.14 532.138 709.893 476.477 770.136C416.717 834.815 359.415 711.053 295.024 703.355C253.693 698.414 206.689 759.571 170.14 733.514C133.59 707.457 120.969 633.689 107.647 569.772C95.8053 512.953 109.132 444.359 97.9248 387.02C75.5618 272.599 -32.6303 186.87 10.0971 70.6524C51.0934 -40.8563 152.267 34.8484 221.359 51.2829C261.212 60.7626 278.816 151.733 320.456 144.476Z" fill="url(#paint0_linear_123_221)"/>
<defs>
<linearGradient id="paint0_linear_123_221" x1="317.668" y1="-21.9221" x2="204.242" y2="754.84" gradientUnits="userSpaceOnUse">
<stop stop-color="white"/>
<stop offset="0.0572917" stop-color="#C2EEED"/>
<stop offset="0.333333" stop-color="#C2EEEA" stop-opacity="0.96"/>
<stop offset="1" stop-color="white"/>
</linearGradient>
</defs>
</svg>
