<svg
  width="14"
  height="19"
  viewBox="0 0 14 19"
  fill="none"
  xmlns="http://www.w3.org/2000/svg"
>
  <path
    d="M13.4815 18.8914H0.51852C0.395735 18.8914 0.277978 18.8014 0.191156 18.6413C0.104334 18.4812 0.0555573 18.264 0.0555573 18.0376C0.0555573 17.8112 0.104334 17.594 0.191156 17.4339C0.277978 17.2738 0.395735 17.1838 0.51852 17.1838H13.4815C13.6043 17.1838 13.722 17.2738 13.8088 17.4339C13.8957 17.594 13.9444 17.8112 13.9444 18.0376C13.9444 18.264 13.8957 18.4812 13.8088 18.6413C13.722 18.8014 13.6043 18.8914 13.4815 18.8914Z"
    fill="#898996"></path>
  <path
    d="M13.4815 10.3538H0.51852C0.395735 10.3538 0.277978 10.2638 0.191156 10.1037C0.104334 9.94359 0.0555573 9.72643 0.0555573 9.5C0.0555573 9.27357 0.104334 9.05641 0.191156 8.8963C0.277978 8.73619 0.395735 8.64624 0.51852 8.64624H13.4815C13.6043 8.64624 13.722 8.73619 13.8088 8.8963C13.8957 9.05641 13.9444 9.27357 13.9444 9.5C13.9444 9.72643 13.8957 9.94359 13.8088 10.1037C13.722 10.2638 13.6043 10.3538 13.4815 10.3538Z"
    fill="#898996"></path>
  <path
    d="M13.4815 1.81619H0.51852C0.395735 1.81619 0.277978 1.72624 0.191156 1.56613C0.104334 1.40602 0.0555573 1.18886 0.0555573 0.962431C0.0555573 0.736 0.104334 0.518844 0.191156 0.358733C0.277978 0.198623 0.395735 0.108673 0.51852 0.108673H13.4815C13.6043 0.108673 13.722 0.198623 13.8088 0.358733C13.8957 0.518844 13.9444 0.736 13.9444 0.962431C13.9444 1.18886 13.8957 1.40602 13.8088 1.56613C13.722 1.72624 13.6043 1.81619 13.4815 1.81619Z"
    fill="#898996"></path>
</svg>
